<svg width="126" height="112" viewBox="0 0 126 112" fill="none" xmlns="http://www.w3.org/2000/svg">
<path d="M120.75 14H98V5.25C98 2.34063 95.6594 0 92.75 0H33.25C30.3406 0 28 2.34063 28 5.25V14H5.25C2.34063 14 0 16.3406 0 19.25V31.5C0 39.3094 4.92188 47.3375 13.5406 53.5281C20.4312 58.4937 28.8094 61.6437 37.6031 62.65C44.4719 74.0469 52.5 78.75 52.5 78.75V94.5H42C34.2781 94.5 28 99.0281 28 106.75V109.375C28 110.819 29.1812 112 30.625 112H95.375C96.8187 112 98 110.819 98 109.375V106.75C98 99.0281 91.7219 94.5 84 94.5H73.5V78.75C73.5 78.75 81.5281 74.0469 88.3969 62.65C97.2125 61.6437 105.591 58.4937 112.459 53.5281C121.056 47.3375 126 39.3094 126 31.5V19.25C126 16.3406 123.659 14 120.75 14ZM21.7219 42.175C16.3844 38.325 14 34.0375 14 31.5V28H28.0437C28.2625 35.1312 29.3125 41.3875 30.8438 46.8563C27.5406 45.7188 24.4563 44.1437 21.7219 42.175ZM112 31.5C112 35.0219 108.128 39.3969 104.278 42.175C101.544 44.1437 98.4375 45.7188 95.1344 46.8563C96.6656 41.3875 97.7156 35.1312 97.9344 28H112V31.5Z" fill="black"/>
</svg>
