<svg width="116" height="116" viewBox="0 0 116 116" fill="none" xmlns="http://www.w3.org/2000/svg">
<path d="M58 0C25.9641 0 0 22.7242 0 50.75C0 66.632 8.36016 80.7922 21.4102 90.1039C23.5852 91.6672 24.8539 94.2047 24.4688 96.8781L22.3391 111.877C22.0219 114.052 23.6984 116 25.8961 116H43.5V103.312C43.5 102.316 44.3156 101.5 45.3125 101.5H48.9375C49.9344 101.5 50.75 102.316 50.75 103.312V116H65.25V103.312C65.25 102.316 66.0656 101.5 67.0625 101.5H70.6875C71.6844 101.5 72.5 102.316 72.5 103.312V116H90.1039C92.3016 116 93.9781 114.052 93.6609 111.877L91.5312 96.8781C91.1461 94.2273 92.3922 91.6672 94.5898 90.1039C107.64 80.7922 116 66.632 116 50.75C116 22.7242 90.0359 0 58 0ZM36.25 72.5C28.2523 72.5 21.75 65.9977 21.75 58C21.75 50.0023 28.2523 43.5 36.25 43.5C44.2477 43.5 50.75 50.0023 50.75 58C50.75 65.9977 44.2477 72.5 36.25 72.5ZM79.75 72.5C71.7523 72.5 65.25 65.9977 65.25 58C65.25 50.0023 71.7523 43.5 79.75 43.5C87.7477 43.5 94.25 50.0023 94.25 58C94.25 65.9977 87.7477 72.5 79.75 72.5Z" fill="black"/>
</svg>
