<svg width="103" height="103" viewBox="0 0 103 103" fill="none" xmlns="http://www.w3.org/2000/svg">
<path d="M100.586 45.0625H94.4775C91.6788 26.2177 76.7823 11.3211 57.9375 8.52244V2.41406C57.9375 1.0809 56.8566 0 55.5234 0H47.4766C46.1434 0 45.0625 1.0809 45.0625 2.41406V8.52244C26.2177 11.3211 11.3211 26.2177 8.52244 45.0625H2.41406C1.0809 45.0625 0 46.1434 0 47.4766V55.5234C0 56.8566 1.0809 57.9375 2.41406 57.9375H8.52244C11.3211 76.7823 26.2177 91.6788 45.0625 94.4775V100.586C45.0625 101.919 46.1434 103 47.4766 103H55.5234C56.8566 103 57.9375 101.919 57.9375 100.586V94.4775C76.7823 91.6788 91.6788 76.7823 94.4775 57.9375H100.586C101.919 57.9375 103 56.8566 103 55.5234V47.4766C103 46.1434 101.919 45.0625 100.586 45.0625ZM57.9375 81.401V73.2266C57.9375 71.8934 56.8566 70.8125 55.5234 70.8125H47.4766C46.1434 70.8125 45.0625 71.8934 45.0625 73.2266V81.401C33.3595 78.906 24.097 69.6544 21.599 57.9375H29.7734C31.1066 57.9375 32.1875 56.8566 32.1875 55.5234V47.4766C32.1875 46.1434 31.1066 45.0625 29.7734 45.0625H21.599C24.094 33.3595 33.3456 24.097 45.0625 21.599V29.7734C45.0625 31.1066 46.1434 32.1875 47.4766 32.1875H55.5234C56.8566 32.1875 57.9375 31.1066 57.9375 29.7734V21.599C69.6405 24.094 78.903 33.3456 81.401 45.0625H73.2266C71.8934 45.0625 70.8125 46.1434 70.8125 47.4766V55.5234C70.8125 56.8566 71.8934 57.9375 73.2266 57.9375H81.401C78.906 69.6405 69.6544 78.903 57.9375 81.401ZM57.9375 51.5C57.9375 55.0553 55.0553 57.9375 51.5 57.9375C47.9447 57.9375 45.0625 55.0553 45.0625 51.5C45.0625 47.9447 47.9447 45.0625 51.5 45.0625C55.0553 45.0625 57.9375 47.9447 57.9375 51.5Z" fill="black"/>
</svg>
