<svg width="82" height="105" viewBox="0 0 82 105" fill="none" xmlns="http://www.w3.org/2000/svg">
<path fill-rule="evenodd" clip-rule="evenodd" d="M81.6369 63.8196C81.6369 57.1683 80.046 50.8885 77.224 45.3401C80.9195 42.8721 81.565 39.5838 81.4237 38.2415C81.5658 33.8364 81.7648 24.6638 81.4237 23.2144C80.9974 21.4026 78.1199 18.7382 75.4555 17.6724C73.324 16.8198 69.807 18.0277 68.3149 18.7382C66.5742 13.8712 62.9222 3.66839 62.2401 1.79267C61.5581 -0.0830563 59.7534 -0.125689 58.9363 0.0874608L49.984 0.0874612C47.5114 0.0874613 46.8577 2.07687 46.8933 3.07158L46.8933 23.4501C46.5188 23.3942 46.1427 23.3435 45.7651 23.2978C44.4619 23.1257 42.8803 23.0011 40.925 23.0011C40.9031 23.0011 40.8814 23.0011 40.8597 23.0012C40.846 23.0012 40.8322 23.0011 40.8184 23.0011C39.0345 23.0011 37.2773 23.1156 35.5538 23.3375C35.4717 23.3467 35.3939 23.3556 35.3211 23.3638C35.268 23.3698 35.2175 23.3755 35.17 23.3809L35.17 3.07158C35.17 0.428503 33.3226 -0.0191131 32.399 0.087462C30.0899 0.0519396 24.9387 0.00219618 22.8072 0.0874624C20.6757 0.172721 19.6454 2.1124 19.3968 3.07158L2.13154 50.7108L2.15131 50.7084C0.756417 54.8235 -1.98471e-06 59.2332 -1.78423e-06 63.8196C-7.98827e-07 86.363 18.275 104.638 40.8184 104.638C63.3618 104.638 81.6369 86.363 81.6369 63.8196ZM35.17 23.3888L35.17 28.8619L46.8933 28.9694L46.8933 23.4683C46.5418 23.4085 46.1666 23.3509 45.7651 23.2978C44.1569 23.1036 42.5199 23.0028 40.8597 23.0012C39.5798 23.0026 38.8217 23.0459 37.5146 23.146C36.7913 23.2014 36.0825 23.2781 35.5538 23.3375C35.4257 23.354 35.2977 23.3711 35.17 23.3888ZM55.3435 63.8196C55.3435 55.7977 48.8404 49.2946 40.8185 49.2946C32.7966 49.2946 26.2935 55.7977 26.2935 63.8196C26.2935 71.8416 32.7966 78.3446 40.8185 78.3446C48.8404 78.3446 55.3435 71.8416 55.3435 63.8196ZM40.9245 54.8078C45.843 54.8078 49.8303 58.7951 49.8303 63.7137C49.8303 68.6322 45.843 72.6195 40.9245 72.6195C36.0059 72.6195 32.0186 68.6322 32.0186 63.7137C32.0186 58.7951 36.0059 54.8078 40.9245 54.8078ZM43.9092 90.0373C43.9092 88.3303 42.5254 86.9466 40.8185 86.9466C39.1115 86.9466 37.7278 88.3303 37.7278 90.0373C37.7278 91.7442 39.1115 93.128 40.8185 93.128C42.5254 93.128 43.9092 91.7442 43.9092 90.0373ZM58.7231 81.4047C60.4301 81.4047 61.8138 82.7884 61.8138 84.4954C61.8138 86.2023 60.4301 87.586 58.7231 87.586C57.0162 87.586 55.6324 86.2023 55.6324 84.4954C55.6324 82.7884 57.0162 81.4047 58.7231 81.4047ZM26.857 84.4954C26.857 82.7884 25.4733 81.4047 23.7663 81.4047C22.0594 81.4047 20.6756 82.7884 20.6756 84.4954C20.6756 86.2023 22.0594 87.586 23.7663 87.586C25.4733 87.586 26.857 86.2023 26.857 84.4954Z" fill="black"/>
</svg>
