<svg width="105" height="82" viewBox="0 0 105 82" fill="none" xmlns="http://www.w3.org/2000/svg">
<path fill-rule="evenodd" clip-rule="evenodd" d="M0 2.96092C0.0352491 1.97395 0.655633 0 2.85517 0H8.56552C9.65825 0.105747 11.8225 0.845978 11.7379 2.96092C11.6533 5.07587 11.7027 24.1456 11.7379 33.4161L25.2736 30.0322C27.9525 23.6874 37.1173 11.1246 52.3449 11.6322C71.3794 12.2667 77.9357 26.6483 79.3104 30.0322C82.1867 30.709 89.3916 32.5701 92.6346 33.4161V2.96092C92.7051 1.97395 93.4805 0 96.0185 0H101.412C102.399 0.246744 104.373 1.18437 104.373 2.96092V78.2529C104.302 79.2047 103.611 81.1081 101.412 81.1081H96.0185C94.8905 81.3549 92.6346 81.1293 92.6346 78.2529V47.5863L79.3104 51.2874C76.7725 57.5265 67.8263 69.8989 52.3449 69.4759C32.9931 68.9472 26.8598 54.9886 25.2736 51.2874C22.9048 50.526 15.2628 48.5027 11.7379 47.5863V78.2529C11.8084 79.2047 11.2727 81.1081 8.56552 81.1081H2.85517C1.90345 81.0729 0 80.4525 0 78.2529V2.96092ZM45.7885 30.8782L41.6644 26.754C43.6102 24.8083 47.974 23.7579 49.9127 23.4759V29.1862C48.8975 29.1016 46.7403 30.279 45.7885 30.8782ZM54.5656 23.4759V29.1862C55.5525 29.3977 57.8014 30.0322 58.9012 30.8782C59.6626 30.2014 61.7564 27.8468 62.7081 26.754C61.1924 25.6613 57.4419 23.4759 54.5656 23.4759ZM63.4483 38.1747C63.4483 37.498 62.4614 35.2138 61.9679 34.1564C62.9196 33.0636 65.0768 30.709 66.092 30.0322C67.2764 31.4704 68.7709 36.0598 69.3702 38.1747C68.066 38.2452 65.0557 38.3439 63.4483 38.1747ZM52.3449 34.8966C55.5173 34.8966 58.0552 37.3281 58.0552 40.8184C58.0552 43.8851 54.7771 46.3173 52.3449 46.3173C50.8644 46.3173 46.5288 44.7311 46.5288 40.8184C46.5288 36.7569 49.1725 34.8966 52.3449 34.8966ZM61.9679 46.9518C62.8984 46.4442 63.3426 43.9908 63.4483 42.8276H69.3702C69.3702 45.6828 67.925 48.4675 66.092 51.2874C65.2108 50.3357 63.1522 48.1361 61.9679 46.9518ZM58.9012 50.1242L62.7081 54.3541C61.0514 55.5878 57.1035 57.9706 54.5656 57.6322V51.9219C55.623 51.7456 57.9706 51.1394 58.9012 50.1242ZM49.9127 57.6322V51.9219C47.9669 51.9219 46.3525 50.7234 45.7885 50.1242C44.7311 51.1817 42.4258 53.5081 41.6644 54.3541C44.2023 56.2998 48.2207 57.3502 49.9127 57.6322ZM42.6161 46.9518L38.5977 51.2874C37.505 50.0184 35.2773 46.5499 35.1081 42.8276H40.7127C40.8889 43.9908 41.5164 46.4442 42.6161 46.9518ZM35.1081 38.1747H40.7127C40.7127 37.075 41.9816 35.0376 42.6161 34.1564C41.9816 33.3104 40.2897 31.3012 38.5977 30.0322C36.9058 31.8934 35.5663 36.236 35.1081 38.1747Z" fill="black"/>
</svg>
