<svg width="105" height="93" viewBox="0 0 105 93" fill="none" xmlns="http://www.w3.org/2000/svg">
<path fill-rule="evenodd" clip-rule="evenodd" d="M104.373 28.9747C104.373 43.0959 94.2708 54.8576 80.8996 57.4278C80.9698 67.8644 81.0635 88.3445 80.8966 90.0967C80.7274 91.8732 79.0637 92.5994 78.253 92.7403H71.8024C70.195 92.7403 69.6522 90.9779 69.5817 90.0967L69.4759 63.7656L46.423 81.1081H52.5564C57.2092 81.6369 57.6625 84.915 57.8437 88.722C58.0129 92.2751 55.764 92.7403 54.7771 92.7403H21.7839C12.9012 90.9426 11.6322 83.7518 11.6322 80.8967V37.8576C11.8437 35.5311 11.9494 29.1863 6.45058 29.0805C0.951725 28.9748 7.4506e-06 24.7112 0 22.7357C-8.37443e-06 20.515 2.64368 16.4966 9.20001 17.8713C19.6901 19.5633 22.9471 29.2215 23.2644 33.8392C23.2291 37.4346 23.1798 45.7675 23.2644 50.3357C30.0433 39.7908 41.8655 35.8968 47.1009 35.2343C46.657 33.2185 46.423 31.1239 46.423 28.9747C46.423 12.9724 59.3955 0 75.3978 0C91.4001 0 104.373 12.9724 104.373 28.9747ZM98.4509 28.9747C98.4509 41.7065 88.1297 52.0276 75.398 52.0276C62.6662 52.0276 52.3451 41.7065 52.3451 28.9747C52.3451 23.274 54.4143 18.0566 57.8427 14.0326C57.7723 18.0157 57.6758 26.7534 57.844 30.0323C58.0555 34.1564 61.3336 46.7402 75.9268 46.423C87.7704 46.1656 92.2118 36.2713 92.7406 30.0323V13.7865C96.2959 17.8427 98.4509 23.1571 98.4509 28.9747ZM88.5574 10.0443C84.826 7.44559 80.2899 5.92185 75.398 5.92185C70.4446 5.92185 65.8562 7.48409 62.0984 10.1427C62.1253 10.1456 62.1524 10.1486 62.1796 10.1518L69.4762 17.3426H81.2141L88.405 10.1518C88.4563 10.1152 88.5071 10.0794 88.5574 10.0443ZM70.9566 28.9747C70.9566 30.61 69.631 31.9357 67.9957 31.9357C66.3604 31.9357 65.0348 30.61 65.0348 28.9747C65.0348 27.3395 66.3604 26.0138 67.9957 26.0138C69.631 26.0138 70.9566 27.3395 70.9566 28.9747ZM82.3773 31.9357C84.0126 31.9357 85.3382 30.61 85.3382 28.9747C85.3382 27.3395 84.0126 26.0138 82.3773 26.0138C80.742 26.0138 79.4164 27.3395 79.4164 28.9747C79.4164 30.61 80.742 31.9357 82.3773 31.9357ZM37.2694 3.52882C36.1313 1.5193 33.2447 1.49536 32.0734 3.48571L30.47 6.21044C30.2931 6.51106 30.1754 6.82358 30.1109 7.13761C29.8497 7.20409 29.5904 7.30819 29.339 7.45334L26.601 9.03409C24.601 10.1888 24.601 13.0755 26.601 14.2302L29.339 15.811C29.5965 15.9597 29.8624 16.0653 30.1302 16.1315C30.1976 16.4162 30.3094 16.6989 30.47 16.9717L32.0734 19.6964C33.2447 21.6868 36.1313 21.6628 37.2694 19.6533L38.8274 16.9024C38.9652 16.659 39.0648 16.4087 39.1295 16.1566C39.4344 16.0935 39.738 15.9801 40.0309 15.811L42.7689 14.2302C44.7689 13.0755 44.7689 10.1888 42.7689 9.03409L40.0309 7.45334C39.7447 7.28807 39.4482 7.17604 39.1503 7.11213C39.0871 6.83086 38.9809 6.55096 38.8274 6.27978L37.2694 3.52882Z" fill="black"/>
</svg>
