<svg width="117" height="59" viewBox="0 0 117 59" fill="none" xmlns="http://www.w3.org/2000/svg">
<path fill-rule="evenodd" clip-rule="evenodd" d="M47.9035 3.17242H30.1104C29.6409 1.34804 27.9848 0 26.0138 0C24.0429 0 22.3868 1.34804 21.9172 3.17242H4.33563C1.94113 3.17242 0 5.11355 0 7.50805C0 9.90256 1.94113 11.8437 4.33564 11.8437H47.9035C50.298 11.8437 52.2391 9.90256 52.2391 7.50805C52.2391 5.11355 50.298 3.17242 47.9035 3.17242ZM94.1933 3.17242H111.986C114.381 3.17242 116.322 5.11355 116.322 7.50805C116.322 9.90256 114.381 11.8437 111.986 11.8437H68.4185C66.0239 11.8437 64.0828 9.90256 64.0828 7.50805C64.0828 5.11355 66.0239 3.17242 68.4184 3.17242H86C86.4696 1.34804 88.1257 0 90.0966 0C92.0676 0 93.7237 1.34804 94.1933 3.17242ZM22.2069 17.8713H30.4552V26.0138C37.1878 23.6169 50.1242 19.3517 58.0552 19.3517C64.7484 19.3517 69.9411 20.9951 79.213 23.9295C81.2207 24.5649 83.4198 25.2609 85.8667 26.0138C85.613 23.8989 85.761 19.7042 85.8667 17.8713H94.3265V29.9265C94.2208 31.5127 92.55 34.7485 86.7127 35.0023H80.5794C82.2713 36.9058 86.0782 41.8125 87.7702 46.2115C89.8851 51.7104 92.0001 57.738 85.8667 58.0552C81.256 58.0552 81.1295 55.8941 81.0077 53.8117C80.9591 52.9808 80.9112 52.1624 80.5794 51.4989C80.3423 51.0247 80.1535 50.4759 79.9388 49.8515C79.0999 47.4122 77.8643 43.8198 71.8024 39.0207C69.772 40.9665 67.5725 42.9334 66.7265 43.6736C65.81 44.8721 62.7927 47.1633 58.0552 46.7403C52.1334 46.2115 50.7587 45.4713 48.538 43.0391C46.7614 41.0934 45.3303 39.5495 44.8368 39.0207C42.4751 40.6422 37.2865 45.4079 35.4253 51.4989C35.4253 56.046 34.2621 59.1127 30.4552 58.0552C27.4943 58.0552 25.8023 57.738 26.9655 51.4989C28.1288 45.2598 33.7334 37.223 35.9541 35.0023H27.7058C24.6391 35.0023 22.2069 32.5278 22.2069 27.7058V17.8713Z" fill="black"/>
</svg>
