<svg width="71" height="101" viewBox="0 0 71 101" fill="none" xmlns="http://www.w3.org/2000/svg">
<path d="M30.4286 15.15L27.8929 35.35L25.3571 42.925L25.3571 46.7125L1.90178 65.1516L1.90178 58.9166C1.90178 57.0756 1.48577 55.55 0.950891 55.55C0.416014 55.55 -1.92e-06 57.0756 -1.83952e-06 58.9166L-1.04853e-06 77.0125L1.90178 77.0125L1.90178 74.4875L27.8929 74.4875L27.8929 82.0625L15.2143 92.5834L15.2143 98.0541L16.9048 99.7375L27.8929 99.7375L27.8929 98.475L30.4286 98.475L30.4286 90.9L30.8511 90.9L32.1189 101L38.8809 101L40.1488 90.9L40.5714 90.9L40.5714 98.475L43.1071 98.475L43.1071 99.7375L54.0952 99.7375L55.7857 98.0541L55.7857 92.5832L43.1071 82.0625L43.1071 74.4875L69.0982 74.4875L69.0982 77.0125L71 77.0125L71 58.9166C71 57.0754 70.584 55.55 70.0491 55.55C69.5142 55.55 69.0982 57.0756 69.0982 58.9166L69.0982 65.1516L45.6429 46.7125L45.6429 42.925L43.1071 35.35L40.5714 15.15C37.1905 -1.62565e-06 36.3585 -1.58928e-06 35.5 -1.55175e-06C34.6415 -1.51423e-06 33.8095 -1.47786e-06 30.4286 15.15Z" fill="black"/>
</svg>
