<svg width="71" height="101" viewBox="0 0 71 101" fill="none" xmlns="http://www.w3.org/2000/svg">
<path d="M27.9315 7.47967C25.4896 12.6668 24.0893 19.6039 24.0893 26.5125L24.0893 71.5953C23.0504 72.3768 22.191 73.2657 21.5536 74.2339L21.5536 41.6625C16.759 64.8362 -1.51349e-06 66.3755 -6.62248e-07 85.8495L-6.62228e-07 85.85L20.2857 85.85L20.2857 88.375L-5.51856e-07 88.375C-3.68985e-07 92.5586 4.54115 95.95 10.1429 95.95L20.2857 95.95C20.2857 99.6108 21.8756 101 24.0893 101L30.4286 101C32.6446 101 34.2321 99.6082 34.2321 95.95L36.7679 95.95C36.7679 99.6108 38.3578 101 40.5714 101L46.9107 101C49.1268 101 50.7143 99.6082 50.7143 95.95L60.8572 95.95C66.4589 95.95 71 92.5586 71 88.375L50.7143 88.375L50.7143 85.85L71 85.85L71 85.8495C71 66.3755 54.241 64.8362 49.4464 41.6625L49.4464 74.234C48.809 73.2659 47.9496 72.3769 46.9107 71.5954L46.9107 26.5125C46.9107 19.6039 45.5104 12.6668 43.0685 7.47967C40.8638 2.79612 38.0344 -1.66254e-06 35.5 -1.55175e-06C32.9656 -1.44097e-06 30.1362 2.79612 27.9315 7.47967ZM41.8393 23.9875C41.8393 24.3223 41.7057 24.6435 41.4679 24.8802C41.2302 25.117 40.9077 25.25 40.5714 25.25L30.4286 25.25C30.0923 25.25 29.7698 25.117 29.5321 24.8802C29.2943 24.6435 29.1607 24.3223 29.1607 23.9875C29.1607 18.9519 41.8393 18.9466 41.8393 23.9875Z" fill="black"/>
</svg>
