<svg width="86" height="106" viewBox="0 0 86 106" fill="none" xmlns="http://www.w3.org/2000/svg">
<path d="M44.3975 0.587105C43.4693 -0.0125266 41.9588 -0.0125267 41.0285 0.589802C35.628 4.08265 32.1465 7.56418 28.6801 11.0306C14.423 25.2877 13.4973 41.4613 17.1682 57.8978L2.77541 72.2906C0.519843 74.5505 -0.495183 78.8412 0.51014 81.8712L7.32945 102.345C7.58385 103.022 7.96796 103.642 8.4602 104.171C9.33963 105.05 10.5321 105.543 11.7753 105.543C13.0186 105.543 14.2109 105.049 15.0901 104.17L29.427 89.8331L29.4262 96.0401C29.4257 99.1788 32.0864 102.29 35.6756 102.289L49.7363 102.29C52.8221 102.294 55.9942 99.6657 55.9894 96.0366L55.9902 89.8297L70.3317 104.171C71.2112 105.05 72.4036 105.544 73.6468 105.543C74.8901 105.543 76.0824 105.049 76.9616 104.17C77.4535 103.641 77.8377 103.021 78.0929 102.344L84.9068 81.888C85.9194 78.8599 84.9079 74.5673 82.6485 72.3079L68.225 57.8844C71.8552 41.4621 70.9359 25.2303 56.754 11.0484C53.2862 7.55476 49.8055 4.07404 44.3975 0.587105ZM48.2405 37.874C47.1477 38.9663 45.7556 39.71 44.2401 40.0111C42.7246 40.3122 41.1539 40.1572 39.7266 39.5657C38.2992 38.9741 37.0793 37.9727 36.2211 36.6878C35.3629 35.403 34.9049 33.8926 34.9051 32.3475C34.9053 30.8024 35.3636 29.2921 36.2221 28.0074C37.0806 26.7228 38.3008 25.7216 39.7283 25.1304C41.1558 24.5392 42.7266 24.3846 44.242 24.6861C45.7573 24.9876 47.1493 25.7316 48.2419 26.8241C49.7061 28.2901 50.5285 30.2774 50.5282 32.3494C50.528 34.4213 49.7051 36.4084 48.2405 37.874Z" fill="black"/>
</svg>
