<svg width="116" height="93" viewBox="0 0 116 93" fill="none" xmlns="http://www.w3.org/2000/svg">
<path d="M77.6321 52.3448C76.2729 52.3448 75.5084 54.1211 75.2961 55.0093V90.5015C75.2961 92.2068 77.4197 92.8463 78.4815 92.9529C79.154 92.9884 80.7963 93.0382 81.9855 92.9529C83.1747 92.8677 83.9676 91.2831 84.2153 90.5015V87.1974C91.5772 84.2842 106.535 78.3724 107.469 78.0313C107.469 79.5235 108.319 81.4419 110.548 81.4419C112.332 81.4419 113.061 79.4524 113.203 78.4576V28.8965H114.902C116.006 28.8965 116.07 27.6175 115.964 26.978V24.5266C115.964 23.6739 115.043 23.2476 114.583 23.141H113.203V19.8369C113.026 19.0198 112.226 17.3642 110.442 17.2789C108.658 17.1936 107.717 18.9487 107.469 19.8369V23.141H105.983C105.133 23.141 104.638 24.0647 104.496 24.5266V27.6175C104.496 28.3849 105.487 28.7899 105.983 28.8965H107.469V63.9623H92.7098C92.7452 61.3688 92.7948 55.8407 92.7098 54.4764C92.6249 53.1122 90.7632 52.4869 89.8429 52.3448H77.6321Z" fill="black"/>
<path d="M23.3733 55.3291V63.9623H8.50784V28.8965H9.67584C11.2898 28.8965 11.4809 27.6175 11.3747 26.978C11.3394 26.6582 11.2898 25.7203 11.3747 24.5266C11.4597 23.3328 10.2775 23.1054 9.67584 23.141H8.50784V19.8369C8.50784 18.9842 7.97694 17.2789 5.8533 17.2789C3.72967 17.2789 3.05719 18.9842 2.9864 19.8369V23.141H1.39368C0.119495 23.141 -0.0574737 24.42 0.0133146 25.0595V27.6175C0.0133146 28.7259 0.933555 28.932 1.39368 28.8965H2.9864V78.4576C2.95101 79.4524 3.47484 81.4419 5.8533 81.4419C8.23177 81.4419 8.61403 79.1682 8.50784 78.0313L32.0802 87.1974C32.0448 87.6593 31.9952 88.9667 32.0802 90.5015C32.1651 92.0363 33.6021 92.7753 34.31 92.9529H38.5572C39.9164 92.9529 40.4685 91.3186 40.5747 90.5015C40.6101 78.955 40.6596 55.5849 40.5747 54.4764C40.4897 53.368 38.628 52.5934 37.7078 52.3448H25.2845C23.6706 52.3448 23.3379 54.3343 23.3733 55.3291Z" fill="black"/>
<path fill-rule="evenodd" clip-rule="evenodd" d="M51.7238 3.42309C51.6884 2.2862 52.1272 0.0124255 54.1659 0.0124255H60.5368C61.634 -0.0941577 63.8922 0.438758 64.147 3.42309C64.4018 6.40741 67.8633 33.0887 69.5623 46.0563V84.9592C69.4915 85.6697 68.9252 87.1122 67.2263 87.1974C65.5274 87.2827 54.9092 87.233 49.8125 87.1974C48.7153 87.1619 46.4996 86.6645 46.4147 84.9592C46.3297 83.2539 46.3793 58.5976 46.4147 46.4827L51.7238 3.42309ZM54.5907 58.1002C52.8917 58.015 52.2547 56.2173 52.1485 55.3291V46.4827C52.1485 45.9498 52.467 40.7272 58.0946 40.7272C62.5967 40.7272 63.7931 44.5642 63.8285 46.4827V55.3291C63.8285 57.6313 61.4925 58.1358 60.3245 58.1002C59.1211 58.1358 56.2896 58.1855 54.5907 58.1002Z" fill="black"/>
</svg>
