<svg width="100" height="100" viewBox="0 0 100 100" fill="none" xmlns="http://www.w3.org/2000/svg">
<path d="M86.0352 17.2852L75.8789 27.4414L81.0547 32.6172C82.8906 34.4532 82.8906 37.4219 81.0547 39.2383L77.6562 42.6368C79.9609 47.7344 81.25 53.3985 81.25 59.3555C81.25 81.7969 63.0664 99.9805 40.625 99.9805C18.1836 99.9805 0 81.8165 0 59.375C0 36.9336 18.1836 18.75 40.625 18.75C46.582 18.75 52.2461 20.0391 57.3438 22.3438L60.7422 18.9453C62.5781 17.1094 65.5469 17.1094 67.3633 18.9453L72.5391 24.1211L82.6953 13.9649L86.0352 17.2852ZM97.6562 11.7188H92.9688C91.6797 11.7188 90.625 12.7734 90.625 14.0625C90.625 15.3516 91.6797 16.4063 92.9688 16.4063H97.6562C98.9453 16.4063 100 15.3516 100 14.0625C100 12.7734 98.9453 11.7188 97.6562 11.7188ZM85.9375 0C84.6484 0 83.5938 1.05469 83.5938 2.34375V7.03126C83.5938 8.32032 84.6484 9.37501 85.9375 9.37501C87.2266 9.37501 88.2812 8.32032 88.2812 7.03126V2.34375C88.2812 1.05469 87.2266 0 85.9375 0ZM92.5586 10.7422L95.8789 7.42188C96.7969 6.50391 96.7969 5.01954 95.8789 4.10157C94.9609 3.1836 93.4766 3.1836 92.5586 4.10157L89.2383 7.42188C88.3203 8.33985 88.3203 9.82423 89.2383 10.7422C90.1758 11.6602 91.6602 11.6602 92.5586 10.7422ZM79.3164 10.7422C80.2344 11.6602 81.7188 11.6602 82.6367 10.7422C83.5547 9.82423 83.5547 8.33985 82.6367 7.42188L79.3164 4.10157C78.3984 3.1836 76.9141 3.1836 75.9961 4.10157C75.0781 5.01954 75.0781 6.50391 75.9961 7.42188L79.3164 10.7422ZM92.5586 17.3828C91.6406 16.4649 90.1562 16.4649 89.2383 17.3828C88.3203 18.3008 88.3203 19.7852 89.2383 20.7031L92.5586 24.0235C93.4766 24.9414 94.9609 24.9414 95.8789 24.0235C96.7969 23.1055 96.7969 21.6211 95.8789 20.7031L92.5586 17.3828ZM21.875 53.125C21.875 46.2305 27.4805 40.625 34.375 40.625C36.0938 40.625 37.5 39.2188 37.5 37.5C37.5 35.7813 36.0938 34.375 34.375 34.375C24.043 34.375 15.625 42.793 15.625 53.125C15.625 54.8438 17.0312 56.25 18.75 56.25C20.4688 56.25 21.875 54.8438 21.875 53.125Z" fill="black"/>
</svg>
