<svg width="100" height="100" viewBox="0 0 100 100" fill="none" xmlns="http://www.w3.org/2000/svg">
<path d="M68.861 25.0004C63.3748 25.0004 58.2968 25.8832 53.8105 27.5121L56.2343 3.46748C56.4452 1.42845 54.6503 -0.229728 52.6035 0.026128C37.0373 1.97922 25.0004 15.1646 25.0004 31.139C25.0004 36.6252 25.8832 41.7033 27.5121 46.1895L3.46748 43.7657C1.42845 43.5548 -0.229728 45.3497 0.026128 47.3965C1.97922 62.9627 15.1646 74.9996 31.1389 74.9996C36.6252 74.9996 41.7033 74.1168 46.1895 72.488L43.7657 96.5325C43.5606 98.5696 45.3497 100.23 47.3965 99.9739C62.9627 98.0208 74.9996 84.8354 74.9996 68.8611C74.9996 63.3748 74.1168 58.2968 72.488 53.8105L96.5325 56.2343C98.5715 56.4394 100.23 54.6503 99.9739 52.6035C98.0208 37.0373 84.8354 25.0004 68.861 25.0004ZM50 56.2499C48.7639 56.2499 47.5555 55.8834 46.5277 55.1966C45.4999 54.5099 44.6989 53.5338 44.2258 52.3917C43.7528 51.2497 43.629 49.9931 43.8702 48.7807C44.1113 47.5683 44.7066 46.4547 45.5806 45.5807C46.4547 44.7066 47.5683 44.1113 48.7807 43.8702C49.9931 43.629 51.2497 43.7528 52.3917 44.2258C53.5338 44.6989 54.5099 45.5 55.1966 46.5277C55.8834 47.5555 56.2499 48.7639 56.2499 50C56.2499 51.6576 55.5914 53.2473 54.4193 54.4194C53.2473 55.5914 51.6576 56.2499 50 56.2499Z" fill="black"/>
</svg>
