<svg width="100" height="101" viewBox="0 0 100 101" fill="none" xmlns="http://www.w3.org/2000/svg">
<path d="M99.8694 4.06021C97.6021 11.6199 93.1682 25.8787 87.8952 40.7235C89.2623 41.1325 90.5134 41.5048 91.5296 41.8161C91.9725 41.9511 92.38 42.1824 92.7229 42.4935C93.0658 42.8046 93.3357 43.1877 93.513 43.6154C93.6904 44.0431 93.7709 44.5047 93.7487 44.9672C93.7266 45.4297 93.6023 45.8815 93.3849 46.2903C89.067 54.552 77.2331 76.1355 65.5549 88.1694C65.3596 88.383 65.1643 88.6577 64.969 88.853C61.4356 92.3873 57.2407 95.191 52.6238 97.1041C48.0069 99.0172 43.0584 100.002 38.0608 100.003C33.0632 100.003 28.1145 99.0197 23.4971 97.1078C18.8797 95.1959 14.684 92.3933 11.1498 88.8599C7.6155 85.3266 4.81178 81.1317 2.8987 76.5148C0.985621 71.8979 0.000641088 66.9493 3.12842e-07 61.9518C-0.000640463 56.9542 0.98307 52.0054 2.89497 47.388C4.80686 42.7706 7.60951 38.575 11.1429 35.0407C11.3382 34.8454 11.6128 34.6501 11.8264 34.4548C23.8586 22.7535 45.4178 10.9363 53.6996 6.6208C54.1084 6.40338 54.5602 6.27915 55.0226 6.25701C55.4851 6.23488 55.9467 6.31539 56.3744 6.49278C56.802 6.67016 57.1851 6.94002 57.4961 7.28298C57.8071 7.62594 58.0383 8.0335 58.1732 8.4764C58.4844 9.47134 58.8567 10.741 59.2656 12.1082C74.09 6.83445 88.3651 2.39994 95.9238 0.135379C96.4699 -0.0298138 97.0506 -0.0441032 97.6042 0.0940264C98.1578 0.232156 98.6637 0.517553 99.0682 0.919946C99.4728 1.32234 99.7608 1.82672 99.9019 2.37959C100.043 2.93246 100.032 3.5132 99.8694 4.06021ZM62.4881 62.5023C62.4874 57.5583 61.0207 52.7255 58.2734 48.615C55.5261 44.5046 51.6217 41.301 47.0538 39.4095C42.4859 37.518 37.4597 37.0234 32.6108 37.9884C27.7618 38.9534 23.3079 41.3345 19.8122 44.8307C16.3165 48.3269 13.936 52.7812 12.9717 57.6302C12.0075 62.4793 12.5027 67.5054 14.3949 72.0731C16.287 76.6407 19.4911 80.5447 23.602 83.2914C27.7128 86.038 32.5458 87.5041 37.4899 87.5041C40.773 87.5042 44.024 86.8575 47.0572 85.6011C50.0904 84.3446 52.8464 82.503 55.1678 80.1813C57.4891 77.8596 59.3304 75.1033 60.5864 72.07C61.8425 69.0366 62.4886 65.7855 62.4881 62.5023ZM37.4899 56.2519C37.4897 57.4879 37.123 58.6961 36.4362 59.7237C35.7494 60.7514 34.7733 61.5522 33.6313 62.0251C32.4893 62.498 31.2328 62.6216 30.0205 62.3804C28.8083 62.1391 27.6948 61.5439 26.8209 60.6698C25.947 59.7958 25.3518 58.6822 25.1108 57.4699C24.8697 56.2577 24.9935 55.0011 25.4666 53.8592C25.9396 52.7173 26.7406 51.7413 27.7683 51.0547C28.796 50.368 30.0043 50.0015 31.2403 50.0015C32.0613 50.0005 32.8745 50.1616 33.6332 50.4754C34.3919 50.7892 35.0813 51.2496 35.6618 51.8302C36.2423 52.4108 36.7026 53.1002 37.0163 53.8589C37.33 54.6177 37.4909 55.4309 37.4899 56.2519H37.4899ZM43.7394 71.878C43.7393 72.496 43.556 73.1001 43.2126 73.6139C42.8692 74.1277 42.3811 74.5281 41.8101 74.7646C41.2391 75.001 40.6109 75.0629 40.0047 74.9422C39.3986 74.8216 38.8419 74.524 38.4049 74.0869C37.968 73.6499 37.6704 73.0931 37.5499 72.487C37.4293 71.8809 37.4912 71.2526 37.7278 70.6816C37.9643 70.1107 38.3648 69.6227 38.8786 69.2794C39.3925 68.936 39.9966 68.7528 40.6146 68.7528C41.4426 68.7555 42.2359 69.0856 42.8214 69.6711C43.4068 70.2566 43.7368 71.05 43.7394 71.878H43.7394Z" fill="black"/>
</svg>
