<svg width="116" height="70" viewBox="0 0 116 70" fill="none" xmlns="http://www.w3.org/2000/svg">
<path fill-rule="evenodd" clip-rule="evenodd" d="M57.5551 0C35.3905 0.845978 27.4524 18.259 26.2539 26.8598C-14.776 39.1264 2.77804 55.3058 9.75735 59.1127C33.4447 71.8024 67.6011 70.2162 83.8862 66.8323C100.171 63.4484 114.87 56.3633 115.822 45.6828C114.722 35.2773 97.6685 28.7985 89.2793 26.8598C89.2793 25.6966 83.8862 6.91414e-05 57.5551 0ZM80.9252 34.6851C73.8049 38.8798 54.573 44.7523 34.6079 34.6851C33.6562 31.407 34.7137 9.5173 57.5551 8.56558C72.5712 8.56558 82.6172 21.361 80.9252 34.6851ZM22.9758 53.5081C25.4871 53.5081 27.5229 51.4723 27.5229 48.961C27.5229 46.4497 25.4871 44.4139 22.9758 44.4139C20.4644 44.4139 18.4286 46.4497 18.4286 48.961C18.4286 51.4723 20.4644 53.5081 22.9758 53.5081ZM96.8931 48.961C96.8931 51.4723 94.8572 53.5081 92.3459 53.5081C89.8346 53.5081 87.7988 51.4723 87.7988 48.961C87.7988 46.4497 89.8346 44.4139 92.3459 44.4139C94.8572 44.4139 96.8931 46.4497 96.8931 48.961ZM57.8723 59.2185C60.3836 59.2185 62.4195 57.1827 62.4195 54.6714C62.4195 52.1601 60.3836 50.1242 57.8723 50.1242C55.361 50.1242 53.3252 52.1601 53.3252 54.6714C53.3252 57.1827 55.361 59.2185 57.8723 59.2185Z" fill="black"/>
</svg>
