<svg width="105" height="82" viewBox="0 0 105 82" fill="none" xmlns="http://www.w3.org/2000/svg">
<path fill-rule="evenodd" clip-rule="evenodd" d="M23.0529 0C19.7823 0 17.131 2.6513 17.131 5.92185C17.131 9.19239 19.7824 11.8437 23.0529 11.8437H23.2644C23.7756 11.8437 24.2717 11.7789 24.7448 11.6571V11.8437H29.1862V20.092C29.1862 21.2659 29.5404 22.357 30.1478 23.2644H26.5424C21.4614 23.2644 17.3424 27.3834 17.3424 32.4644C17.3424 33.3063 17.4555 34.1218 17.6673 34.8966H11.4207V22.8414C11.4207 19.6877 8.86409 17.1311 5.71035 17.1311C2.55661 17.1311 0 19.6877 0 22.8414V41.4529C0 44.6067 2.55661 47.1633 5.71035 47.1633C6.29942 47.1633 6.86765 47.0741 7.40229 46.9084V47.1633H12.0975C11.794 48.2749 11.632 49.445 11.632 50.6529C11.632 57.5353 16.8919 63.1892 23.6111 63.814C23.2531 64.5687 23.0529 65.4127 23.0529 66.3035V75.3978C23.0529 78.6099 25.6568 81.2139 28.869 81.2139C29.3806 81.2139 29.8768 81.1478 30.3494 81.0238C30.8221 81.1478 31.3183 81.2139 31.8299 81.2139H40.5012C43.7133 81.2139 46.3173 78.6099 46.3173 75.3978C46.3173 72.1856 43.7133 69.5817 40.5012 69.5817H34.6851V66.3035C34.6851 65.4352 34.4948 64.6113 34.1536 63.8713H69.9016C69.5604 64.6113 69.3702 65.4352 69.3702 66.3035V69.5817H63.5541C60.3419 69.5817 57.738 72.1856 57.738 75.3978C57.738 78.6099 60.3419 81.2139 63.5541 81.2139H70.1104C71.0203 81.2139 71.8814 81.0049 72.6483 80.6324C73.4152 81.0049 74.2764 81.2139 75.1862 81.2139C78.3984 81.2139 81.0023 78.6099 81.0023 75.3978V66.3035C81.0023 65.4195 80.8051 64.5816 80.4523 63.8313C87.2682 63.3027 92.6344 57.6045 92.6344 50.6529C92.6344 49.445 92.4724 48.2749 92.1689 47.1633H96.4414V46.8383C97.0368 47.0488 97.6775 47.1633 98.3449 47.1633C101.499 47.1633 104.055 44.6067 104.055 41.4529V22.8414C104.055 19.6877 101.499 17.1311 98.3449 17.1311C95.1912 17.1311 92.6345 19.6877 92.6345 22.8414V34.8966H86.5991C86.811 34.1218 86.924 33.3063 86.924 32.4644C86.924 27.3834 82.8051 23.2644 77.724 23.2644H74.1189C74.7263 22.357 75.0805 21.2659 75.0805 20.092V11.8437H78.8874V11.4549C79.5443 11.7061 80.2572 11.8437 81.0024 11.8437H81.2139C84.4844 11.8437 87.1357 9.19239 87.1357 5.92185C87.1357 2.6513 84.4844 0 81.2139 0H81.0024C77.7318 0 75.0805 2.6513 75.0805 5.92185L69.3702 5.92184H68.5242V5.98408C65.7716 6.39285 63.6598 8.7659 63.6598 11.6322V17.554H40.6069V11.6322C40.6069 8.47846 38.0503 5.92184 34.8966 5.92184C34.1494 5.92184 33.4357 6.06535 32.7816 6.3263V5.92184L29.1862 5.92185C29.1862 2.6513 26.5349 0 23.2644 0H23.0529ZM39.761 23.0845C39.7235 23.1452 39.685 23.2052 39.6453 23.2644H39.761V23.0845ZM28.7632 34.4736H40.1839V52.2391H28.7632V34.4736ZM75.0805 52.2391V34.4736H63.6598V52.2391H75.0805Z" fill="black"/>
</svg>
