<svg width="105" height="93" viewBox="0 0 105 93" fill="none" xmlns="http://www.w3.org/2000/svg">
<path fill-rule="evenodd" clip-rule="evenodd" d="M25.3849 19.9878C27.4646 13.2552 35.6847 -0.167642 51.9275 0.00155403C72.2309 0.213048 78.047 17.6613 78.7873 19.9878C81.0079 20.5165 103.849 26.0154 104.167 37.5418C104.484 49.0683 77.201 58.4798 52.1389 57.8453C27.0769 57.2108 0.534306 50.6545 0.00556926 37.6476C-0.359818 28.6591 17.3481 21.6797 25.3849 19.9878ZM70.8562 29.928C64.9344 32.9947 58.6953 34.5809 51.9275 34.6866C43.9964 34.6866 38.3918 32.8889 32.9987 29.928C32.47 18.8246 39.6608 9.09582 52.1389 8.67283C65.9918 9.51881 71.9137 19.9878 70.8562 29.928ZM21.7897 37.6476C21.7897 40.1589 19.7539 42.1947 17.2426 42.1947C14.7313 42.1947 12.6954 40.1589 12.6954 37.6476C12.6954 35.1363 14.7313 33.1005 17.2426 33.1005C19.7539 33.1005 21.7897 35.1363 21.7897 37.6476ZM51.9277 50.6545C54.439 50.6545 56.4748 48.6187 56.4748 46.1074C56.4748 43.5961 54.439 41.5602 51.9277 41.5602C49.4163 41.5602 47.3805 43.5961 47.3805 46.1074C47.3805 48.6187 49.4163 50.6545 51.9277 50.6545ZM91.1599 37.6476C91.1599 40.1589 89.1241 42.1947 86.6127 42.1947C84.1014 42.1947 82.0656 40.1589 82.0656 37.6476C82.0656 35.1363 84.1014 33.1005 86.6127 33.1005C89.1241 33.1005 91.1599 35.1363 91.1599 37.6476ZM14.916 57.951C17.2424 58.797 22.1068 60.4678 22.9528 60.3832C22.3606 61.9906 12.9068 81.2154 8.25389 90.6269C7.83091 91.5081 6.45619 93.1014 4.34125 92.4246C2.81849 91.7478 1.80332 91.4377 1.48607 91.3671C0.710594 90.7327 -0.607721 88.9773 0.322855 87.0315C1.25343 85.0858 10.4393 66.8338 14.916 57.951ZM89.2563 57.951C86.9298 58.797 82.0655 60.4678 81.2195 60.3832C81.8117 61.9906 91.2655 81.2154 95.9183 90.6269C96.3413 91.5081 97.716 93.1014 99.831 92.4246C101.354 91.7478 102.369 91.4377 102.686 91.3671C103.462 90.7327 104.78 88.9773 103.849 87.0315C102.919 85.0858 93.7329 66.8338 89.2563 57.951Z" fill="black"/>
</svg>
