<svg width="70" height="116" viewBox="0 0 70 116" fill="none" xmlns="http://www.w3.org/2000/svg">
<path fill-rule="evenodd" clip-rule="evenodd" d="M69.7932 34.8966C69.7932 15.6237 54.1694 1.2891e-05 34.8966 1.37334e-05C15.6237 1.45759e-05 -4.38521e-06 15.6237 -3.54277e-06 34.8966C-2.70032e-06 54.1694 15.6237 69.7932 34.8966 69.7932C54.1694 69.7932 69.7932 54.1694 69.7932 34.8966ZM46.7403 34.8965C46.7403 28.3554 41.4377 23.0528 34.8966 23.0528C28.3555 23.0528 23.0529 28.3554 23.0529 34.8965C23.0529 41.4376 28.3555 46.7402 34.8966 46.7402C41.4377 46.7402 46.7403 41.4376 46.7403 34.8965ZM34.7908 29.1861C38.003 29.1861 40.6069 31.7901 40.6069 35.0022C40.6069 38.2144 38.003 40.8183 34.7908 40.8183C31.5787 40.8183 28.9747 38.2144 28.9747 35.0022C28.9747 31.7901 31.5787 29.1861 34.7908 29.1861ZM17.6598 87.1357L26.6483 78.5702L26.6483 74.6575C30.6314 75.3273 39.5495 76.2649 43.3564 74.6575C43.2718 76.4341 43.1096 77.7947 43.0391 78.2529L52.4506 91.0483L52.4506 78.2529C52.5564 76.3495 53.9099 72.5637 58.4782 72.6483C61.9679 72.7541 63.9771 75.6092 63.9771 78.2529L63.9771 110.823C64.1533 112.48 63.4906 115.814 59.4299 115.899C57.9918 115.984 56.9978 115.934 56.6805 115.899C55.2705 115.864 52.4506 114.799 52.4506 110.823L52.4506 104.267L41.9816 90.2024C42.0169 92.987 40.6915 98.5775 35.1081 98.6621C28.1288 98.7679 27.8115 91.4713 27.9173 90.2024C26.9021 91.3021 20.656 97.2874 17.6598 100.143L17.6598 110.823C17.695 112.515 16.9619 115.899 13.7471 115.899L10.9977 115.899C9.27051 115.969 5.8161 115.053 5.8161 110.823L5.8161 78.2529C5.8161 75.8207 7.5292 72.6483 11.4207 72.6483C16.2851 72.6483 17.6598 76.6667 17.6598 78.2529L17.6598 87.1357Z" fill="black"/>
</svg>
